M48
METRIC,LZ,000.000
;FILE_FORMAT=3:3
;TYPE=PLATED
;Layer: PTH_Through
;EasyEDA v6.5.39, 2025-03-31 16:42:18
;8c5cdcb6969146bda3c33439ce40f75b,8c5f514d37a848dc893bb94b3339d7fb,10
;Gerber Generator version 0.2
;Holesize 1 = 0.310 mm
T01C0.310
;Holesize 2 = 0.901 mm
T02C0.901
;Holesize 3 = 1.000 mm
T03C1.000
;Holesize 4 = 1.200 mm
T04C1.200
;Holesize 5 = 2.301 mm
T05C2.301
;Holesize 6 = 3.200 mm
T06C3.200
;Holesize 7 = 3.301 mm
T07C3.301
%
G05
G90
T01
X027178Y075692
X022098Y075692
X027051Y072517
X033020Y072517
X035052Y073787
X029083Y073787
X025908Y078994
X043180Y070993
X038227Y074803
X033274Y074676
X018288Y080899
X017526Y079248
X072644Y085852
X087757Y088646
X068834Y077597
X040386Y072517
X043688Y074422
X101727Y071501
X101600Y068199
X101600Y064897
X101600Y061595
X056134Y067818
X100076Y083439
X022606Y091948
X074930Y073787
X041656Y078359
X042672Y078359
X041656Y079502
X042672Y079502
X052070Y088138
X078359Y085852
X078359Y084582
X084582Y086614
X083820Y086614
X069723Y073533
X070612Y073533
X069596Y064516
X070358Y064516
X065151Y076581
X064262Y076581
X063373Y076581
X019050Y076327
X021717Y074549
X025908Y077978
X018288Y076327
X018288Y075565
X019050Y075565
X021717Y073787
X021717Y073025
X099949Y084709
X102870Y074549
X100076Y075311
X103505Y075692
X097790Y074422
X102108Y076962
T02
X033274Y086995
X033274Y089535
X037465Y086995
X037465Y089535
X029083Y086995
X029083Y089535
X024892Y086995
X024892Y089535
T03
X109474Y084127
X109474Y070276
X109474Y067506
X106934Y066122
X106934Y068891
X106934Y071662
X109474Y073046
X109474Y075816
X109474Y078586
X109474Y081356
X106934Y074431
X106934Y077202
X106934Y082741
X106934Y085511
X106934Y079971
X012928Y074061
X012928Y076561
X014928Y076561
X014928Y074061
T04
X079248Y069850
X079248Y067310
X086868Y069850
X086868Y067310
X079248Y064770
X079248Y062230
X086868Y064770
X086868Y062230
T05
X010218Y081331
X010218Y069291
T06
X108204Y059159
X108204Y092479
T07
X007928Y055311
X007928Y095311
X096928Y095311
X096928Y055311
M30
