G04 Layer: BottomSilkscreenLayer*
G04 EasyEDA v6.5.39, 2025-03-31 16:42:18*
G04 8c5cdcb6969146bda3c33439ce40f75b,8c5f514d37a848dc893bb94b3339d7fb,10*
G04 Gerber Generator version 0.2*
G04 Scale: 100 percent, Rotated: No, Reflected: No *
G04 Dimensions in millimeters *
G04 leading zeros omitted , absolute positions ,4 integer and 5 decimal *
%FSLAX45Y45*%
%MOMM*%

%ADD10C,0.2032*%

%LPD*%
G36*
X5207457Y5632551D02*
G01*
X5180076Y5630265D01*
X5177790Y5606796D01*
X5196484Y5602122D01*
X5207457Y5606338D01*
G37*
G36*
X4969713Y5632551D02*
G01*
X4942738Y5630265D01*
X4939080Y5540146D01*
X4887976Y5581142D01*
X4872685Y5585155D01*
X4844745Y5582818D01*
X4842865Y5575503D01*
X4897729Y5532475D01*
X4842357Y5476798D01*
X4842357Y5471464D01*
X4880152Y5471464D01*
X4939080Y5528056D01*
X4941214Y5471058D01*
X4971948Y5473293D01*
X4974082Y5608370D01*
G37*
G36*
X3820058Y5632551D02*
G01*
X3792677Y5630265D01*
X3790594Y5540857D01*
X3784447Y5540857D01*
X3774389Y5553049D01*
X3731615Y5584647D01*
X3695903Y5584647D01*
X3695903Y5575249D01*
X3747008Y5533491D01*
X3747008Y5527141D01*
X3692245Y5478119D01*
X3692245Y5471464D01*
X3730447Y5471464D01*
X3790848Y5531561D01*
X3790848Y5471464D01*
X3820058Y5471464D01*
G37*
G36*
X5718759Y5632094D02*
G01*
X5716778Y5502503D01*
X5654700Y5502503D01*
X5652566Y5551576D01*
X5669330Y5555386D01*
X5709462Y5557266D01*
X5709462Y5582818D01*
X5642051Y5582818D01*
X5622188Y5562904D01*
X5621832Y5498134D01*
X5631789Y5479592D01*
X5649569Y5471464D01*
X5725109Y5471464D01*
X5747816Y5492648D01*
X5747816Y5632094D01*
G37*
G36*
X3403600Y5632094D02*
G01*
X3399383Y5621121D01*
X3403955Y5602884D01*
X3425444Y5602884D01*
X3432657Y5616346D01*
X3428542Y5632094D01*
G37*
G36*
X5370423Y5621934D02*
G01*
X5271312Y5619242D01*
X5246319Y5604611D01*
X5229555Y5571845D01*
X5229399Y5531104D01*
X5257749Y5531104D01*
X5261000Y5570118D01*
X5278069Y5588304D01*
X5349849Y5588304D01*
X5349849Y5500674D01*
X5283657Y5500674D01*
X5269585Y5508193D01*
X5257749Y5531104D01*
X5229399Y5531104D01*
X5229352Y5518658D01*
X5243931Y5490057D01*
X5275630Y5471464D01*
X5373928Y5471464D01*
X5382717Y5480253D01*
X5382717Y5609691D01*
G37*
G36*
X5976010Y5621629D02*
G01*
X5863996Y5619343D01*
X5845606Y5597906D01*
X5849162Y5564581D01*
X5854090Y5552744D01*
X5843879Y5542534D01*
X5835446Y5526735D01*
X5835446Y5515813D01*
X5863996Y5515813D01*
X5876747Y5529884D01*
X5944819Y5529884D01*
X5949391Y5548122D01*
X5945174Y5559094D01*
X5894679Y5559094D01*
X5879642Y5571845D01*
X5877407Y5586476D01*
X5951677Y5588558D01*
X5954826Y5582818D01*
X5954115Y5502503D01*
X5866587Y5502503D01*
X5863996Y5515813D01*
X5835446Y5515813D01*
X5835446Y5486603D01*
X5854700Y5471464D01*
X5980684Y5471464D01*
X5985154Y5482996D01*
X5985154Y5612384D01*
G37*
G36*
X3849115Y5621629D02*
G01*
X3851097Y5473293D01*
X3945432Y5471261D01*
X3968953Y5482386D01*
X3991254Y5507786D01*
X3998925Y5535371D01*
X3998925Y5616295D01*
X3994099Y5621172D01*
X3974846Y5621172D01*
X3966108Y5612384D01*
X3966108Y5523941D01*
X3943705Y5502503D01*
X3880307Y5502503D01*
X3876649Y5619343D01*
G37*
G36*
X1715516Y5621477D02*
G01*
X1667713Y5619343D01*
X1665782Y5471464D01*
X1694942Y5471464D01*
X1696923Y5586476D01*
X1715211Y5589016D01*
X1720545Y5597448D01*
X1720697Y5616295D01*
G37*
G36*
X2505100Y5621324D02*
G01*
X2383332Y5619343D01*
X2383332Y5590133D01*
X2476449Y5588101D01*
X2476449Y5567832D01*
X2467660Y5559094D01*
X2390089Y5559094D01*
X2375154Y5542686D01*
X2366924Y5526735D01*
X2366924Y5503976D01*
X2377846Y5482844D01*
X2394102Y5471464D01*
X2504795Y5471464D01*
X2507742Y5487873D01*
X2505151Y5500471D01*
X2401620Y5502503D01*
X2401620Y5528056D01*
X2483205Y5530138D01*
X2504897Y5550357D01*
X2510078Y5605678D01*
G37*
G36*
X4596993Y5621172D02*
G01*
X4573168Y5609844D01*
X4564888Y5591606D01*
X4564888Y5570982D01*
X4593691Y5570982D01*
X4595876Y5586476D01*
X4643678Y5588609D01*
X4648860Y5583428D01*
X4648860Y5567832D01*
X4640072Y5559094D01*
X4605528Y5559094D01*
X4593691Y5570982D01*
X4564888Y5570982D01*
X4564888Y5548579D01*
X4557776Y5544159D01*
X4550930Y5518912D01*
X4582312Y5518912D01*
X4586528Y5529884D01*
X4656378Y5529884D01*
X4660392Y5519470D01*
X4657953Y5502503D01*
X4586986Y5500420D01*
X4582312Y5518912D01*
X4550930Y5518912D01*
X4549952Y5515305D01*
X4557725Y5486450D01*
X4578756Y5471464D01*
X4668926Y5471515D01*
X4689348Y5487873D01*
X4693158Y5528056D01*
X4679086Y5554980D01*
X4682337Y5590133D01*
X4665167Y5615381D01*
X4647031Y5620410D01*
G37*
G36*
X4436364Y5621172D02*
G01*
X4412691Y5609945D01*
X4396892Y5581853D01*
X4396892Y5560923D01*
X4427931Y5560923D01*
X4430471Y5579160D01*
X4437989Y5588304D01*
X4501591Y5588304D01*
X4506468Y5583428D01*
X4506468Y5566664D01*
X4491786Y5558790D01*
X4427931Y5560923D01*
X4396892Y5560923D01*
X4396892Y5512511D01*
X4408068Y5485841D01*
X4431588Y5471515D01*
X4517390Y5471464D01*
X4517390Y5500674D01*
X4441240Y5500674D01*
X4429760Y5512155D01*
X4429760Y5529884D01*
X4508449Y5529884D01*
X4526534Y5542330D01*
X4535424Y5553608D01*
X4535678Y5598261D01*
X4520895Y5617006D01*
X4504639Y5620156D01*
G37*
G36*
X2917494Y5621172D02*
G01*
X2893669Y5609844D01*
X2885389Y5591606D01*
X2885389Y5554472D01*
X2911195Y5530138D01*
X2993085Y5528056D01*
X2993085Y5502503D01*
X2885389Y5500471D01*
X2885389Y5471464D01*
X3024124Y5471464D01*
X3024124Y5537758D01*
X3002788Y5559094D01*
X2926029Y5559094D01*
X2914192Y5570982D01*
X2916428Y5586476D01*
X3003550Y5588558D01*
X3013151Y5596483D01*
X3013151Y5616295D01*
X3008274Y5621172D01*
G37*
G36*
X2119579Y5621172D02*
G01*
X2095957Y5616448D01*
X2082139Y5593791D01*
X2082139Y5558282D01*
X2097938Y5530138D01*
X2122271Y5518607D01*
X2122271Y5513019D01*
X2082139Y5478373D01*
X2082139Y5471464D01*
X2122932Y5471464D01*
X2172716Y5515711D01*
X2192934Y5521147D01*
X2200757Y5533542D01*
X2192731Y5546293D01*
X2125268Y5549950D01*
X2110994Y5567680D01*
X2113178Y5586476D01*
X2202434Y5588508D01*
X2204415Y5473293D01*
X2235454Y5471058D01*
X2235454Y5609691D01*
X2224024Y5621172D01*
G37*
G36*
X2744825Y5621121D02*
G01*
X2717393Y5613501D01*
X2699105Y5595213D01*
X2696229Y5588304D01*
X2814980Y5588304D01*
X2834233Y5569051D01*
X2834233Y5522569D01*
X2826969Y5522569D01*
X2826969Y5529732D01*
X2748432Y5581954D01*
X2741523Y5588304D01*
X2696229Y5588304D01*
X2688234Y5569153D01*
X2688234Y5533288D01*
X2717393Y5533288D01*
X2717393Y5562295D01*
X2724200Y5566511D01*
X2728925Y5558891D01*
X2804820Y5507990D01*
X2812338Y5507990D01*
X2812338Y5500674D01*
X2742488Y5500674D01*
X2727756Y5508548D01*
X2717393Y5533288D01*
X2688234Y5533288D01*
X2688234Y5523179D01*
X2701848Y5491378D01*
X2730601Y5471464D01*
X2824429Y5471464D01*
X2849473Y5490565D01*
X2863443Y5513476D01*
X2863443Y5572810D01*
X2852572Y5598820D01*
X2828798Y5616905D01*
X2806852Y5620054D01*
G37*
G36*
X2649880Y5620918D02*
G01*
X2550210Y5619343D01*
X2535986Y5606440D01*
X2526944Y5576214D01*
X2535986Y5543956D01*
X2554579Y5531713D01*
X2635250Y5528056D01*
X2637536Y5500674D01*
X2531364Y5500674D01*
X2526792Y5482437D01*
X2531008Y5471464D01*
X2669946Y5471464D01*
X2669946Y5525770D01*
X2663088Y5543804D01*
X2646680Y5559094D01*
X2571902Y5559094D01*
X2560015Y5570982D01*
X2562250Y5586476D01*
X2649423Y5588558D01*
X2659024Y5596483D01*
X2659024Y5616905D01*
G37*
G36*
X1543608Y5620867D02*
G01*
X1462125Y5618886D01*
X1436471Y5599328D01*
X1430935Y5588304D01*
X1551584Y5588304D01*
X1562760Y5575503D01*
X1570990Y5559552D01*
X1570990Y5534152D01*
X1566672Y5522925D01*
X1550924Y5537657D01*
X1475536Y5588304D01*
X1430935Y5588304D01*
X1424940Y5576214D01*
X1424940Y5570067D01*
X1461465Y5570067D01*
X1461719Y5560923D01*
X1539951Y5507990D01*
X1549095Y5507990D01*
X1549095Y5500674D01*
X1473047Y5500674D01*
X1454150Y5523128D01*
X1454150Y5570067D01*
X1424940Y5570067D01*
X1424940Y5513476D01*
X1438910Y5490565D01*
X1463954Y5471464D01*
X1557832Y5471464D01*
X1585061Y5490362D01*
X1600200Y5522518D01*
X1600200Y5569153D01*
X1589836Y5593791D01*
X1567942Y5614670D01*
G37*
G36*
X6114745Y5620816D02*
G01*
X6008979Y5619343D01*
X6006388Y5605983D01*
X6010808Y5588304D01*
X6113170Y5588304D01*
X6111087Y5502503D01*
X6008878Y5498846D01*
X6006592Y5471464D01*
X6122060Y5471515D01*
X6143955Y5489041D01*
X6143955Y5598464D01*
X6129324Y5614720D01*
G37*
G36*
X4322064Y5620613D02*
G01*
X4240580Y5618886D01*
X4213555Y5598261D01*
X4209032Y5588304D01*
X4327906Y5588304D01*
X4345787Y5569000D01*
X4345787Y5518912D01*
X4339336Y5518912D01*
X4335881Y5531713D01*
X4259986Y5582462D01*
X4253077Y5588304D01*
X4209032Y5588304D01*
X4199890Y5568238D01*
X4199771Y5535523D01*
X4232097Y5535523D01*
X4234434Y5568238D01*
X4239615Y5560263D01*
X4314748Y5509209D01*
X4329379Y5502503D01*
X4254652Y5500420D01*
X4236466Y5512358D01*
X4232097Y5535523D01*
X4199771Y5535523D01*
X4199737Y5528919D01*
X4208373Y5500116D01*
X4240936Y5471464D01*
X4335983Y5471464D01*
X4361027Y5490565D01*
X4374997Y5513476D01*
X4374997Y5577687D01*
X4364075Y5598871D01*
X4340301Y5616854D01*
G37*
G36*
X6282690Y5620562D02*
G01*
X6190081Y5619089D01*
X6174232Y5604764D01*
X6164021Y5585002D01*
X6164021Y5541162D01*
X6172098Y5523484D01*
X6199733Y5507990D01*
X6277660Y5507990D01*
X6275374Y5535371D01*
X6206286Y5537504D01*
X6193231Y5549290D01*
X6193485Y5575503D01*
X6203340Y5588558D01*
X6282690Y5586476D01*
X6284722Y5471464D01*
X6314186Y5471464D01*
X6311900Y5602173D01*
X6298336Y5617108D01*
G37*
G36*
X4805730Y5585460D02*
G01*
X4728311Y5582615D01*
X4710938Y5560923D01*
X4710887Y5495899D01*
X4729530Y5471464D01*
X4813706Y5471464D01*
X4835042Y5492800D01*
X4834991Y5520740D01*
X4820869Y5543956D01*
X4789424Y5548630D01*
X4749241Y5546293D01*
X4749241Y5520740D01*
X4801616Y5517083D01*
X4806746Y5511952D01*
X4802276Y5500370D01*
X4741926Y5502503D01*
X4741926Y5553608D01*
X4807661Y5557266D01*
X4810048Y5574233D01*
G37*
G36*
X3546144Y5585460D02*
G01*
X3469538Y5582666D01*
X3453129Y5566206D01*
X3453129Y5490311D01*
X3470808Y5471464D01*
X3554069Y5471464D01*
X3575405Y5492800D01*
X3575405Y5519623D01*
X3562756Y5541060D01*
X3537102Y5548630D01*
X3489604Y5546293D01*
X3489604Y5520740D01*
X3541979Y5517083D01*
X3547110Y5511952D01*
X3542690Y5500370D01*
X3482340Y5502503D01*
X3480155Y5551576D01*
X3496919Y5555386D01*
X3548024Y5557266D01*
X3550462Y5574233D01*
G37*
G36*
X5207457Y5585104D02*
G01*
X5180076Y5582818D01*
X5178044Y5471464D01*
X5207457Y5471464D01*
G37*
G36*
X5596534Y5585002D02*
G01*
X5574385Y5582818D01*
X5570728Y5502503D01*
X5514136Y5500370D01*
X5514136Y5471464D01*
X5579110Y5471464D01*
X5601766Y5492648D01*
X5601766Y5579770D01*
G37*
G36*
X3424529Y5585002D02*
G01*
X3401974Y5582818D01*
X3399993Y5471058D01*
X3431184Y5473293D01*
X3433216Y5574538D01*
G37*
G36*
X5147513Y5584748D02*
G01*
X5014112Y5582818D01*
X4993843Y5562600D01*
X4993843Y5473293D01*
X5024882Y5471058D01*
X5024882Y5551627D01*
X5043119Y5556250D01*
X5054092Y5552033D01*
X5054092Y5471464D01*
X5083302Y5471464D01*
X5083302Y5547258D01*
X5093716Y5555894D01*
X5125313Y5553608D01*
X5127345Y5471464D01*
X5156352Y5471464D01*
X5156352Y5575909D01*
G37*
G36*
X5478424Y5584647D02*
G01*
X5474004Y5573115D01*
X5474004Y5462320D01*
X5481726Y5434584D01*
X5504992Y5420207D01*
X5563412Y5422188D01*
X5565698Y5449570D01*
X5515610Y5449570D01*
X5506821Y5458307D01*
X5506821Y5580380D01*
X5497728Y5584088D01*
G37*
G36*
X3289909Y5584647D02*
G01*
X3264204Y5572455D01*
X3250488Y5549950D01*
X3250488Y5471464D01*
X3279698Y5471464D01*
X3279698Y5540298D01*
X3298901Y5555437D01*
X3345179Y5555437D01*
X3347212Y5473293D01*
X3378250Y5471058D01*
X3378250Y5573166D01*
X3366770Y5584647D01*
G37*
G36*
X1973681Y5584647D02*
G01*
X1951278Y5576824D01*
X1939747Y5552490D01*
X1939747Y5540095D01*
X1951024Y5516270D01*
X1969312Y5507990D01*
X2026513Y5507990D01*
X2030323Y5522569D01*
X2026513Y5537200D01*
X1973021Y5537200D01*
X1968296Y5544820D01*
X1977136Y5555437D01*
X2024176Y5555437D01*
X2038299Y5547868D01*
X2038299Y5512206D01*
X2033879Y5500674D01*
X1980692Y5500674D01*
X1976272Y5489143D01*
X1976272Y5471464D01*
X2040991Y5471464D01*
X2059686Y5486196D01*
X2068322Y5512358D01*
X2065375Y5558993D01*
X2050440Y5579008D01*
X2032863Y5583936D01*
G37*
G36*
X1793443Y5584647D02*
G01*
X1789480Y5574233D01*
X1813763Y5525109D01*
X1845868Y5489295D01*
X1881073Y5471464D01*
X1920697Y5471464D01*
X1925116Y5482996D01*
X1925116Y5579770D01*
X1920239Y5584647D01*
X1901037Y5584647D01*
X1892249Y5575909D01*
X1892249Y5505551D01*
X1887931Y5501182D01*
X1861261Y5516067D01*
X1851355Y5524093D01*
X1828038Y5560923D01*
X1818386Y5584647D01*
G37*
G36*
X3197555Y5584393D02*
G01*
X3126841Y5582564D01*
X3112973Y5570016D01*
X3105759Y5546293D01*
X3111855Y5523026D01*
X3133344Y5507685D01*
X3193897Y5509818D01*
X3193897Y5535371D01*
X3139135Y5539028D01*
X3139135Y5553608D01*
X3192729Y5555792D01*
X3203346Y5547004D01*
X3201162Y5502503D01*
X3146399Y5498846D01*
X3144164Y5471464D01*
X3208477Y5471515D01*
X3230372Y5489041D01*
X3232912Y5554472D01*
X3221177Y5577179D01*
G37*
G36*
X3646627Y5584342D02*
G01*
X3577234Y5582818D01*
X3577234Y5557266D01*
X3628339Y5555386D01*
X3644798Y5551627D01*
X3644798Y5471058D01*
X3675837Y5473293D01*
X3675837Y5561990D01*
X3661206Y5578195D01*
G37*
G36*
X1635506Y5501030D02*
G01*
X1621028Y5498846D01*
X1613001Y5486095D01*
X1621028Y5473293D01*
X1640078Y5471007D01*
X1644802Y5489803D01*
G37*
G36*
X4094784Y5500674D02*
G01*
X4085742Y5489803D01*
X4090365Y5471464D01*
X4112107Y5471464D01*
X4112107Y5478170D01*
X4116222Y5488787D01*
X4104284Y5500674D01*
G37*
G36*
X2344115Y5500674D02*
G01*
X2335885Y5500420D01*
X2323084Y5490718D01*
X2323084Y5479643D01*
X2333650Y5470906D01*
X2350465Y5473293D01*
X2352852Y5490108D01*
G37*
D10*
X9997440Y8032196D02*
G01*
X10006675Y8050669D01*
X10034384Y8078378D01*
X9840422Y8078378D01*
X9923548Y8281578D02*
G01*
X9923548Y8447831D01*
X10034384Y8651031D02*
G01*
X9840422Y8651031D01*
X10034384Y8651031D02*
G01*
X10034384Y8734160D01*
X10025148Y8761869D01*
X10015913Y8771105D01*
X9997440Y8780340D01*
X9978966Y8780340D01*
X9960493Y8771105D01*
X9951257Y8761869D01*
X9942022Y8734160D01*
X9942022Y8651031D01*
X9942022Y8715687D02*
G01*
X9840422Y8780340D01*
X10006675Y8970611D02*
G01*
X10025148Y8952138D01*
X10034384Y8924429D01*
X10034384Y8887482D01*
X10025148Y8859774D01*
X10006675Y8841300D01*
X9988202Y8841300D01*
X9969731Y8850538D01*
X9960493Y8859774D01*
X9951257Y8878247D01*
X9932784Y8933665D01*
X9923548Y8952138D01*
X9914313Y8961374D01*
X9895840Y8970611D01*
X9868131Y8970611D01*
X9849657Y8952138D01*
X9840422Y8924429D01*
X9840422Y8887482D01*
X9849657Y8859774D01*
X9868131Y8841300D01*
X10034384Y9096225D02*
G01*
X9840422Y9096225D01*
X10034384Y9031571D02*
G01*
X10034384Y9160880D01*
X9676988Y8041431D02*
G01*
X9686226Y8041431D01*
X9704699Y8050669D01*
X9713935Y8059905D01*
X9723170Y8078378D01*
X9723170Y8115322D01*
X9713935Y8133796D01*
X9704699Y8143031D01*
X9686226Y8152269D01*
X9667753Y8152269D01*
X9649279Y8143031D01*
X9621570Y8124560D01*
X9529208Y8032196D01*
X9529208Y8161505D01*
X9612335Y8364705D02*
G01*
X9612335Y8530960D01*
X9723170Y8734160D02*
G01*
X9529208Y8734160D01*
X9723170Y8734160D02*
G01*
X9723170Y8817287D01*
X9713935Y8844996D01*
X9704699Y8854231D01*
X9686226Y8863469D01*
X9658517Y8863469D01*
X9640044Y8854231D01*
X9630808Y8844996D01*
X9621570Y8817287D01*
X9621570Y8734160D01*
X9723170Y8989082D02*
G01*
X9529208Y8989082D01*
X9723170Y8924429D02*
G01*
X9723170Y9053738D01*
X9723170Y9188589D02*
G01*
X9529208Y9114698D01*
X9723170Y9188589D02*
G01*
X9529208Y9262480D01*
X9593861Y9142407D02*
G01*
X9593861Y9234771D01*
X9723170Y9521098D02*
G01*
X9713935Y9493389D01*
X9686226Y9474916D01*
X9640044Y9465680D01*
X9612335Y9465680D01*
X9566153Y9474916D01*
X9538444Y9493389D01*
X9529208Y9521098D01*
X9529208Y9539571D01*
X9538444Y9567280D01*
X9566153Y9585751D01*
X9612335Y9594989D01*
X9640044Y9594989D01*
X9686226Y9585751D01*
X9713935Y9567280D01*
X9723170Y9539571D01*
X9723170Y9521098D01*
X9411957Y8124560D02*
G01*
X9282648Y8032196D01*
X9282648Y8170740D01*
X9411957Y8124560D02*
G01*
X9217995Y8124560D01*
X9301121Y8373940D02*
G01*
X9301121Y8540196D01*
X9411957Y8798813D02*
G01*
X9402721Y8780340D01*
X9384248Y8761869D01*
X9365775Y8752631D01*
X9338066Y8743396D01*
X9291886Y8743396D01*
X9264175Y8752631D01*
X9245704Y8761869D01*
X9227230Y8780340D01*
X9217995Y8798813D01*
X9217995Y8835760D01*
X9227230Y8854231D01*
X9245704Y8872705D01*
X9264175Y8881940D01*
X9291886Y8891178D01*
X9338066Y8891178D01*
X9365775Y8881940D01*
X9384248Y8872705D01*
X9402721Y8854231D01*
X9411957Y8835760D01*
X9411957Y8798813D01*
X9384248Y9081447D02*
G01*
X9402721Y9062974D01*
X9411957Y9035265D01*
X9411957Y8998320D01*
X9402721Y8970611D01*
X9384248Y8952138D01*
X9365775Y8952138D01*
X9347304Y8961374D01*
X9338066Y8970611D01*
X9328830Y8989082D01*
X9310357Y9044500D01*
X9301121Y9062974D01*
X9291886Y9072211D01*
X9273413Y9081447D01*
X9245704Y9081447D01*
X9227230Y9062974D01*
X9217995Y9035265D01*
X9217995Y8998320D01*
X9227230Y8970611D01*
X9245704Y8952138D01*
X9365775Y9280951D02*
G01*
X9384248Y9271716D01*
X9402721Y9253242D01*
X9411957Y9234771D01*
X9411957Y9197825D01*
X9402721Y9179351D01*
X9384248Y9160880D01*
X9365775Y9151642D01*
X9338066Y9142407D01*
X9291886Y9142407D01*
X9264175Y9151642D01*
X9245704Y9160880D01*
X9227230Y9179351D01*
X9217995Y9197825D01*
X9217995Y9234771D01*
X9227230Y9253242D01*
X9245704Y9271716D01*
X9264175Y9280951D01*
X9100741Y8143031D02*
G01*
X9100741Y8050669D01*
X9017614Y8041431D01*
X9026850Y8050669D01*
X9036088Y8078378D01*
X9036088Y8106087D01*
X9026850Y8133796D01*
X9008379Y8152269D01*
X8980670Y8161505D01*
X8962196Y8161505D01*
X8934488Y8152269D01*
X8916014Y8133796D01*
X8906779Y8106087D01*
X8906779Y8078378D01*
X8916014Y8050669D01*
X8925250Y8041431D01*
X8943723Y8032196D01*
X8989905Y8364705D02*
G01*
X8989905Y8530960D01*
X9100741Y8734160D02*
G01*
X8906779Y8734160D01*
X9100741Y8795120D02*
G01*
X8906779Y8795120D01*
X9100741Y8795120D02*
G01*
X9100741Y8878247D01*
X9091505Y8905956D01*
X9082270Y8915191D01*
X9063796Y8924429D01*
X9045323Y8924429D01*
X9026850Y8915191D01*
X9017614Y8905956D01*
X9008379Y8878247D01*
X9008379Y8795120D01*
X9008379Y8859774D02*
G01*
X8906779Y8924429D01*
X9100741Y9040807D02*
G01*
X9091505Y9022334D01*
X9073032Y9003860D01*
X9054558Y8994625D01*
X9026850Y8985389D01*
X8980670Y8985389D01*
X8952958Y8994625D01*
X8934488Y9003860D01*
X8916014Y9022334D01*
X8906779Y9040807D01*
X8906779Y9077751D01*
X8916014Y9096225D01*
X8934488Y9114698D01*
X8952958Y9123934D01*
X8980670Y9133171D01*
X9026850Y9133171D01*
X9054558Y9123934D01*
X9073032Y9114698D01*
X9091505Y9096225D01*
X9100741Y9077751D01*
X9100741Y9040807D01*
X8943723Y9068516D02*
G01*
X8888305Y9123934D01*
X8734110Y8032196D02*
G01*
X8743345Y8050669D01*
X8771054Y8078378D01*
X8577092Y8078378D01*
X8724872Y8148573D02*
G01*
X8734110Y8148573D01*
X8752583Y8157811D01*
X8761818Y8167047D01*
X8771054Y8185520D01*
X8771054Y8222465D01*
X8761818Y8240938D01*
X8752583Y8250173D01*
X8734110Y8259411D01*
X8715636Y8259411D01*
X8697163Y8250173D01*
X8669454Y8231700D01*
X8577092Y8139338D01*
X8577092Y8268647D01*
X8660218Y8471847D02*
G01*
X8660218Y8638100D01*
X8771054Y8896720D02*
G01*
X8761818Y8878247D01*
X8743345Y8859774D01*
X8724872Y8850538D01*
X8697163Y8841300D01*
X8650983Y8841300D01*
X8623272Y8850538D01*
X8604801Y8859774D01*
X8586327Y8878247D01*
X8577092Y8896720D01*
X8577092Y8933665D01*
X8586327Y8952138D01*
X8604801Y8970611D01*
X8623272Y8979847D01*
X8650983Y8989082D01*
X8697163Y8989082D01*
X8724872Y8979847D01*
X8743345Y8970611D01*
X8761818Y8952138D01*
X8771054Y8933665D01*
X8771054Y8896720D01*
X8771054Y9050042D02*
G01*
X8632510Y9050042D01*
X8604801Y9059280D01*
X8586327Y9077751D01*
X8577092Y9105460D01*
X8577092Y9123934D01*
X8586327Y9151642D01*
X8604801Y9170116D01*
X8632510Y9179351D01*
X8771054Y9179351D01*
X8771054Y9304967D02*
G01*
X8577092Y9304967D01*
X8771054Y9240311D02*
G01*
X8771054Y9369620D01*
X8734110Y9430580D02*
G01*
X8743345Y9449054D01*
X8771054Y9476762D01*
X8577092Y9476762D01*
X8422896Y8032196D02*
G01*
X8432131Y8050669D01*
X8459840Y8078378D01*
X8265878Y8078378D01*
X8422896Y8139338D02*
G01*
X8432131Y8157811D01*
X8459840Y8185520D01*
X8265878Y8185520D01*
X8349005Y8388720D02*
G01*
X8349005Y8554974D01*
X8459840Y8813591D02*
G01*
X8450605Y8795120D01*
X8432131Y8776647D01*
X8413658Y8767411D01*
X8385949Y8758174D01*
X8339769Y8758174D01*
X8312058Y8767411D01*
X8293587Y8776647D01*
X8275114Y8795120D01*
X8265878Y8813591D01*
X8265878Y8850538D01*
X8275114Y8869011D01*
X8293587Y8887482D01*
X8312058Y8896720D01*
X8339769Y8905956D01*
X8385949Y8905956D01*
X8413658Y8896720D01*
X8432131Y8887482D01*
X8450605Y8869011D01*
X8459840Y8850538D01*
X8459840Y8813591D01*
X8459840Y8966916D02*
G01*
X8321296Y8966916D01*
X8293587Y8976151D01*
X8275114Y8994625D01*
X8265878Y9022334D01*
X8265878Y9040807D01*
X8275114Y9068516D01*
X8293587Y9086989D01*
X8321296Y9096225D01*
X8459840Y9096225D01*
X8459840Y9221840D02*
G01*
X8265878Y9221840D01*
X8459840Y9157185D02*
G01*
X8459840Y9286494D01*
X8413658Y9356691D02*
G01*
X8422896Y9356691D01*
X8441369Y9365927D01*
X8450605Y9375162D01*
X8459840Y9393636D01*
X8459840Y9430580D01*
X8450605Y9449054D01*
X8441369Y9458291D01*
X8422896Y9467527D01*
X8404423Y9467527D01*
X8385949Y9458291D01*
X8358240Y9439818D01*
X8265878Y9347454D01*
X8265878Y9476762D01*
X8111683Y8032196D02*
G01*
X8120918Y8050669D01*
X8148627Y8078378D01*
X7954665Y8078378D01*
X8148627Y8250173D02*
G01*
X8148627Y8157811D01*
X8065500Y8148573D01*
X8074736Y8157811D01*
X8083974Y8185520D01*
X8083974Y8213229D01*
X8074736Y8240938D01*
X8056265Y8259411D01*
X8028556Y8268647D01*
X8010083Y8268647D01*
X7982374Y8259411D01*
X7963900Y8240938D01*
X7954665Y8213229D01*
X7954665Y8185520D01*
X7963900Y8157811D01*
X7973136Y8148573D01*
X7991609Y8139338D01*
X8037791Y8471847D02*
G01*
X8037791Y8638100D01*
X8148627Y8896720D02*
G01*
X8139391Y8878247D01*
X8120918Y8859774D01*
X8102445Y8850538D01*
X8074736Y8841300D01*
X8028556Y8841300D01*
X8000845Y8850538D01*
X7982374Y8859774D01*
X7963900Y8878247D01*
X7954665Y8896720D01*
X7954665Y8933665D01*
X7963900Y8952138D01*
X7982374Y8970611D01*
X8000845Y8979847D01*
X8028556Y8989082D01*
X8074736Y8989082D01*
X8102445Y8979847D01*
X8120918Y8970611D01*
X8139391Y8952138D01*
X8148627Y8933665D01*
X8148627Y8896720D01*
X8148627Y9050042D02*
G01*
X8010083Y9050042D01*
X7982374Y9059280D01*
X7963900Y9077751D01*
X7954665Y9105460D01*
X7954665Y9123934D01*
X7963900Y9151642D01*
X7982374Y9170116D01*
X8010083Y9179351D01*
X8148627Y9179351D01*
X8148627Y9304967D02*
G01*
X7954665Y9304967D01*
X8148627Y9240311D02*
G01*
X8148627Y9369620D01*
X8148627Y9449054D02*
G01*
X8148627Y9550654D01*
X8074736Y9495236D01*
X8074736Y9522945D01*
X8065500Y9541418D01*
X8056265Y9550654D01*
X8028556Y9559891D01*
X8010083Y9559891D01*
X7982374Y9550654D01*
X7963900Y9532180D01*
X7954665Y9504471D01*
X7954665Y9476762D01*
X7963900Y9449054D01*
X7973136Y9439818D01*
X7991609Y9430580D01*
X7800466Y8032196D02*
G01*
X7809702Y8050669D01*
X7837411Y8078378D01*
X7643449Y8078378D01*
X7837411Y8231700D02*
G01*
X7708102Y8139338D01*
X7708102Y8277882D01*
X7837411Y8231700D02*
G01*
X7643449Y8231700D01*
X7726575Y8481082D02*
G01*
X7726575Y8647338D01*
X7837411Y8905956D02*
G01*
X7828175Y8887482D01*
X7809702Y8869011D01*
X7791229Y8859774D01*
X7763520Y8850538D01*
X7717340Y8850538D01*
X7689629Y8859774D01*
X7671158Y8869011D01*
X7652684Y8887482D01*
X7643449Y8905956D01*
X7643449Y8942900D01*
X7652684Y8961374D01*
X7671158Y8979847D01*
X7689629Y8989082D01*
X7717340Y8998320D01*
X7763520Y8998320D01*
X7791229Y8989082D01*
X7809702Y8979847D01*
X7828175Y8961374D01*
X7837411Y8942900D01*
X7837411Y8905956D01*
X7837411Y9059280D02*
G01*
X7698866Y9059280D01*
X7671158Y9068516D01*
X7652684Y9086989D01*
X7643449Y9114698D01*
X7643449Y9133171D01*
X7652684Y9160880D01*
X7671158Y9179351D01*
X7698866Y9188589D01*
X7837411Y9188589D01*
X7837411Y9314202D02*
G01*
X7643449Y9314202D01*
X7837411Y9249549D02*
G01*
X7837411Y9378858D01*
X7837411Y9532180D02*
G01*
X7708102Y9439818D01*
X7708102Y9578362D01*
X7837411Y9532180D02*
G01*
X7643449Y9532180D01*
X7489253Y8032196D02*
G01*
X7498488Y8050669D01*
X7526197Y8078378D01*
X7332235Y8078378D01*
X7526197Y8157811D02*
G01*
X7526197Y8259411D01*
X7452306Y8203991D01*
X7452306Y8231700D01*
X7443071Y8250173D01*
X7433835Y8259411D01*
X7406126Y8268647D01*
X7387653Y8268647D01*
X7359944Y8259411D01*
X7341471Y8240938D01*
X7332235Y8213229D01*
X7332235Y8185520D01*
X7341471Y8157811D01*
X7350706Y8148573D01*
X7369180Y8139338D01*
X7415362Y8471847D02*
G01*
X7415362Y8638100D01*
X7526197Y8952138D02*
G01*
X7526197Y8859774D01*
X7443071Y8850538D01*
X7452306Y8859774D01*
X7461544Y8887482D01*
X7461544Y8915191D01*
X7452306Y8942900D01*
X7433835Y8961374D01*
X7406126Y8970611D01*
X7387653Y8970611D01*
X7359944Y8961374D01*
X7341471Y8942900D01*
X7332235Y8915191D01*
X7332235Y8887482D01*
X7341471Y8859774D01*
X7350706Y8850538D01*
X7369180Y8841300D01*
X7526197Y9031571D02*
G01*
X7332235Y9105460D01*
X7526197Y9179351D02*
G01*
X7332235Y9105460D01*
X7178040Y8032196D02*
G01*
X7187275Y8050669D01*
X7214984Y8078378D01*
X7021022Y8078378D01*
X7214984Y8194756D02*
G01*
X7205748Y8167047D01*
X7178040Y8148573D01*
X7131857Y8139338D01*
X7104148Y8139338D01*
X7057966Y8148573D01*
X7030257Y8167047D01*
X7021022Y8194756D01*
X7021022Y8213229D01*
X7030257Y8240938D01*
X7057966Y8259411D01*
X7104148Y8268647D01*
X7131857Y8268647D01*
X7178040Y8259411D01*
X7205748Y8240938D01*
X7214984Y8213229D01*
X7214984Y8194756D01*
X7104148Y8471847D02*
G01*
X7104148Y8638100D01*
X7214984Y8859774D02*
G01*
X7214984Y8961374D01*
X7141093Y8905956D01*
X7141093Y8933665D01*
X7131857Y8952138D01*
X7122622Y8961374D01*
X7094913Y8970611D01*
X7076440Y8970611D01*
X7048731Y8961374D01*
X7030257Y8942900D01*
X7021022Y8915191D01*
X7021022Y8887482D01*
X7030257Y8859774D01*
X7039493Y8850538D01*
X7057966Y8841300D01*
X7214984Y9031571D02*
G01*
X7021022Y9105460D01*
X7214984Y9179351D02*
G01*
X7021022Y9105460D01*
X7214984Y9258785D02*
G01*
X7214984Y9360385D01*
X7141093Y9304967D01*
X7141093Y9332676D01*
X7131857Y9351149D01*
X7122622Y9360385D01*
X7094913Y9369620D01*
X7076440Y9369620D01*
X7048731Y9360385D01*
X7030257Y9341911D01*
X7021022Y9314202D01*
X7021022Y9286494D01*
X7030257Y9258785D01*
X7039493Y9249549D01*
X7057966Y9240311D01*
M02*
