G04 Layer: TopSolderMaskLayer*
G04 EasyEDA v6.5.39, 2025-03-31 16:42:18*
G04 8c5cdcb6969146bda3c33439ce40f75b,8c5f514d37a848dc893bb94b3339d7fb,10*
G04 Gerber Generator version 0.2*
G04 Scale: 100 percent, Rotated: No, Reflected: No *
G04 Dimensions in millimeters *
G04 leading zeros omitted , absolute positions ,4 integer and 5 decimal *
%FSLAX45Y45*%
%MOMM*%

%AMMACRO1*1,1,$1,$2,$3*1,1,$1,$4,$5*1,1,$1,0-$2,0-$3*1,1,$1,0-$4,0-$5*20,1,$1,$2,$3,$4,$5,0*20,1,$1,$4,$5,0-$2,0-$3,0*20,1,$1,0-$2,0-$3,0-$4,0-$5,0*20,1,$1,0-$4,0-$5,$2,$3,0*4,1,4,$2,$3,$4,$5,0-$2,0-$3,0-$4,0-$5,$2,$3,0*%
%ADD10C,1.9016*%
%ADD11R,1.9016X1.9016*%
%ADD12C,4.6016*%
%ADD13MACRO1,0.1016X-0.675X0.705X0.675X0.705*%
%ADD14MACRO1,0.1016X-0.675X-0.705X0.675X-0.705*%
%ADD15MACRO1,0.1016X-0.705X-0.675X-0.705X0.675*%
%ADD16MACRO1,0.1016X0.705X-0.675X0.705X0.675*%
%ADD17MACRO1,0.1016X0.705X0.675X0.705X-0.675*%
%ADD18MACRO1,0.1016X-0.705X0.675X-0.705X-0.675*%
%ADD19MACRO1,0.1016X-0.75X0.6795X0.75X0.6795*%
%ADD20R,1.4516X1.5116*%
%ADD21MACRO1,0.1016X0.6795X0.75X0.6795X-0.75*%
%ADD22R,1.3016X1.3016*%
%ADD23MACRO1,0.1016X0.3X0.25X0.3X-0.25*%
%ADD24MACRO1,0.1016X0.455X-0.61X-0.455X-0.61*%
%ADD25MACRO1,0.1016X0.65X2.75X0.65X-2.75*%
%ADD26MACRO1,0.1016X-0.35X0.5X0.35X0.5*%
%ADD27R,0.9656X0.9081*%
%ADD28MACRO1,0.1016X-0.432X0.4032X0.432X0.4032*%
%ADD29MACRO1,0.1016X-0.432X-0.4032X0.432X-0.4032*%
%ADD30MACRO1,0.1016X0.4032X0.432X0.4032X-0.432*%
%ADD31MACRO1,0.1016X-0.4032X0.432X-0.4032X-0.432*%
%ADD32MACRO1,0.1016X-0.4032X-0.432X-0.4032X0.432*%
%ADD33MACRO1,0.1016X0.4032X-0.432X0.4032X0.432*%
%ADD34O,2.1170899999999997X0.4656074*%
%ADD35O,0.7036053999999999X2.332609*%
%ADD36O,0.6755891999999999X2.1395944*%
%ADD37O,2.5021032X0.6755891999999999*%
%ADD38C,3.1016*%
%ADD39C,1.6256*%
%ADD40C,5.1016*%
%ADD41C,0.0163*%

%LPD*%
D10*
G01*
X10947400Y8412645D03*
G01*
X10947400Y7027659D03*
G01*
X10947400Y6750646D03*
G01*
X10693400Y6612166D03*
G01*
X10693400Y6889153D03*
G01*
X10693400Y7166165D03*
G01*
X10947400Y7304646D03*
G01*
X10947400Y7581658D03*
G01*
X10947400Y7858645D03*
G01*
X10947400Y8135658D03*
G01*
X10693400Y7443152D03*
G01*
X10693400Y7720164D03*
G01*
X10693400Y8274164D03*
D11*
G01*
X10693400Y8551151D03*
D10*
G01*
X10693400Y7997151D03*
D12*
G01*
X10820425Y5915901D03*
G01*
X10820425Y9247898D03*
D13*
G01*
X2057400Y8218497D03*
D14*
G01*
X2057400Y8418502D03*
D13*
G01*
X1828800Y8218497D03*
D14*
G01*
X1828800Y8418502D03*
D15*
G01*
X2119302Y7835900D03*
D16*
G01*
X1919297Y7835900D03*
D17*
G01*
X3773497Y7835900D03*
D18*
G01*
X3973502Y7835900D03*
D19*
G01*
X2610500Y6985000D03*
G01*
X2850498Y6985000D03*
D20*
G01*
X4445000Y8367699D03*
G01*
X4445000Y8167700D03*
D17*
G01*
X6580197Y7366000D03*
D18*
G01*
X6780202Y7366000D03*
D17*
G01*
X6580197Y6451600D03*
D18*
G01*
X6780202Y6451600D03*
D20*
G01*
X4533900Y6996099D03*
G01*
X4533900Y6796100D03*
D19*
G01*
X8350900Y8864600D03*
G01*
X8590898Y8864600D03*
D21*
G01*
X6692900Y7905099D03*
G01*
X6692900Y7665101D03*
G01*
X6692900Y8768699D03*
G01*
X6692900Y8528701D03*
G01*
X6692900Y8336899D03*
G01*
X6692900Y8096901D03*
D15*
G01*
X7643802Y8928100D03*
D16*
G01*
X7443797Y8928100D03*
D22*
G01*
X1892300Y7424394D03*
G01*
X1892300Y7104405D03*
D23*
G01*
X4318000Y6948801D03*
G01*
X4318000Y6868798D03*
D24*
G01*
X8485188Y8470900D03*
G01*
X8812211Y8470900D03*
D25*
G01*
X5994398Y7364094D03*
G01*
X5994398Y6453505D03*
D26*
G01*
X8850376Y7677403D03*
G01*
X8980424Y7677403D03*
G01*
X8915374Y7867396D03*
G01*
X9167876Y7677403D03*
G01*
X9297924Y7677403D03*
G01*
X9232874Y7867396D03*
D27*
G01*
X2489200Y8508136D03*
G01*
X2489200Y8357463D03*
D28*
G01*
X3530600Y7684375D03*
D29*
G01*
X3530600Y7835024D03*
D27*
G01*
X2908300Y8508136D03*
G01*
X2908300Y8357463D03*
G01*
X3746500Y8508136D03*
G01*
X3746500Y8357463D03*
D30*
G01*
X4699875Y8915400D03*
D31*
G01*
X4850524Y8915400D03*
D27*
G01*
X3327400Y8508136D03*
G01*
X3327400Y8357463D03*
D30*
G01*
X5233275Y6286500D03*
D31*
G01*
X5383924Y6286500D03*
D32*
G01*
X5510924Y7467600D03*
D33*
G01*
X5360275Y7467600D03*
D30*
G01*
X9830675Y5994400D03*
D31*
G01*
X9981324Y5994400D03*
D30*
G01*
X9830675Y6324600D03*
D31*
G01*
X9981324Y6324600D03*
D30*
G01*
X9830675Y6654800D03*
D31*
G01*
X9981324Y6654800D03*
D30*
G01*
X9830675Y6985000D03*
D31*
G01*
X9981324Y6985000D03*
D30*
G01*
X9830675Y6159500D03*
D31*
G01*
X9981324Y6159500D03*
D30*
G01*
X9830675Y6489700D03*
D31*
G01*
X9981324Y6489700D03*
D30*
G01*
X9830675Y6819900D03*
D31*
G01*
X9981324Y6819900D03*
D30*
G01*
X9830675Y7150100D03*
D31*
G01*
X9981324Y7150100D03*
D30*
G01*
X8636875Y8661400D03*
D31*
G01*
X8787524Y8661400D03*
D27*
G01*
X8648700Y7822336D03*
G01*
X8648700Y7671663D03*
D32*
G01*
X9079624Y8039100D03*
D33*
G01*
X8928975Y8039100D03*
D30*
G01*
X9081375Y8204200D03*
D31*
G01*
X9232024Y8204200D03*
D28*
G01*
X8458200Y7671675D03*
D29*
G01*
X8458200Y7822324D03*
D10*
G01*
X7924800Y6985000D03*
G01*
X7924800Y6731000D03*
G01*
X8686800Y6985000D03*
G01*
X8686800Y6731000D03*
G01*
X7924800Y6477000D03*
G01*
X7924800Y6223000D03*
G01*
X8686800Y6477000D03*
G01*
X8686800Y6223000D03*
D34*
G01*
X3088716Y7184796D03*
G01*
X3088716Y7249795D03*
G01*
X3088716Y7314793D03*
G01*
X3088716Y7379792D03*
G01*
X3088716Y7444790D03*
G01*
X3088716Y7509789D03*
G01*
X3088716Y7574813D03*
G01*
X3088716Y7639812D03*
G01*
X3088716Y7704810D03*
G01*
X3088716Y7769809D03*
G01*
X3088716Y7834807D03*
G01*
X3088716Y7899806D03*
G01*
X3088716Y7964804D03*
G01*
X3088716Y8029803D03*
G01*
X2397683Y7184796D03*
G01*
X2397683Y7249795D03*
G01*
X2397683Y7314793D03*
G01*
X2397683Y7379792D03*
G01*
X2397683Y7444790D03*
G01*
X2397683Y7509789D03*
G01*
X2397683Y7574813D03*
G01*
X2397683Y7639812D03*
G01*
X2397683Y7704810D03*
G01*
X2397683Y7769809D03*
G01*
X2397683Y7834807D03*
G01*
X2397683Y7899806D03*
G01*
X2397683Y7964804D03*
G01*
X2397683Y8029803D03*
D35*
G01*
X4699000Y7898460D03*
G01*
X4826000Y7898460D03*
G01*
X4953000Y7898460D03*
G01*
X5080000Y7898460D03*
G01*
X5207000Y7898460D03*
G01*
X5334000Y7898460D03*
G01*
X5461000Y7898460D03*
G01*
X5461000Y8611514D03*
G01*
X4699000Y8611514D03*
G01*
X4826000Y8611514D03*
G01*
X4953000Y8611514D03*
G01*
X5080000Y8611514D03*
G01*
X5207000Y8611514D03*
G01*
X5334000Y8611514D03*
D36*
G01*
X4724400Y6619189D03*
G01*
X4851400Y6619189D03*
G01*
X4978400Y6619189D03*
G01*
X5105400Y6619189D03*
G01*
X5232400Y6619189D03*
G01*
X5359400Y6619189D03*
G01*
X5486400Y6619189D03*
G01*
X4724400Y7173010D03*
G01*
X4851400Y7173010D03*
G01*
X4978400Y7173010D03*
G01*
X5105400Y7173010D03*
G01*
X5232400Y7173010D03*
G01*
X5359400Y7173010D03*
G01*
X5486400Y7173010D03*
D37*
G01*
X7081469Y8712200D03*
G01*
X7081469Y8585200D03*
G01*
X7081469Y8458200D03*
G01*
X7081469Y8331200D03*
G01*
X7081469Y8204200D03*
G01*
X7081469Y8077200D03*
G01*
X7081469Y7950200D03*
G01*
X7081469Y7823200D03*
G01*
X8031530Y8712200D03*
G01*
X8031530Y8585200D03*
G01*
X8031530Y8458200D03*
G01*
X8031530Y8331200D03*
G01*
X8031530Y8204200D03*
G01*
X8031530Y8077200D03*
G01*
X8031530Y7950200D03*
G01*
X8031530Y7823200D03*
D38*
G01*
X1021816Y8133079D03*
G01*
X1021816Y6929069D03*
D39*
G01*
X1292809Y7406081D03*
G01*
X1292809Y7656068D03*
G01*
X1492808Y7656068D03*
G01*
X1492808Y7406081D03*
G01*
X3327400Y8699500D03*
G01*
X3327400Y8953500D03*
G01*
X3746500Y8699500D03*
G01*
X3746500Y8953500D03*
G01*
X2908300Y8699500D03*
G01*
X2908300Y8953500D03*
G01*
X2489200Y8699500D03*
G01*
X2489200Y8953500D03*
D40*
G01*
X792784Y5531104D03*
G01*
X792784Y9531095D03*
G01*
X9692766Y9531095D03*
G01*
X9692766Y5531104D03*
M02*
